<?xml version="1.0" encoding="UTF-8"?>
<svg width="4839px" height="1433px" viewBox="0 0 4839 1433" version="1.1" xmlns="http://www.w3.org/2000/svg" xmlns:xlink="http://www.w3.org/1999/xlink">
    <!-- Generator: Sketch 49.3 (51167) - http://www.bohemiancoding.com/sketch -->
    <title>Slice</title>
    <desc>Created with Sketch.</desc>
    <defs></defs>
    <g id="Page-1" stroke="none" stroke-width="1" fill="none" fill-rule="evenodd">
        <g id="ship">
            <g id="bottom-water" transform="translate(328.000000, 1331.000000)" fill="#0076FF" fill-rule="nonzero">
                <path d="M623.121263,54.0759229 C569.127962,54.0759229 546.180809,15.6556137 544.599577,12.8197365 C540.603131,4.95091473 532.567691,0 523.792872,0 C515.018053,0 506.982614,4.95091473 502.986168,12.8197365 C486.511998,38.9550327 457.780729,54.6379275 427.048446,54.2701611 C404.982975,54.282485 383.537387,46.917912 366.074583,33.3312868 C357.663886,27.0719893 350.228486,19.5824164 344.014462,11.1104407 C339.860511,4.66616828 332.858383,0.655229841 325.236314,0.353995959 C317.614245,0.0527620775 310.321658,3.49875519 305.679218,9.59538298 C305.332119,10.0227069 269.657973,54.2701611 225.614866,54.2701611 C180.453326,54.2701611 142.503749,17.1706714 141.269616,15.9275472 C136.713228,11.5898393 130.551696,9.38937976 124.300293,9.86731641 C118.093846,9.39499046 111.972666,11.5487899 107.408103,15.8110043 C92.793992,31.6894277 74.5694044,43.7543649 54.3018344,50.9681123 C45.2426503,53.9625847 35.7052538,55.2145107 26.1867511,54.6586374 C25.1454517,54.6586374 24.2969856,54.4255516 23.602786,54.4255516 C10.5673272,54.4255516 0,65.0698704 0,78.2003031 C0,91.3307357 10.5673272,101.975055 23.602786,101.975055 L24.8369186,101.975055 L29.9277156,101.975055 C43.2089988,101.944325 56.3993442,99.7670793 68.9957257,95.5263475 C89.5190468,88.4482639 108.493604,77.4475206 124.878793,63.1274214 C145.434814,79.1714939 182.150259,101.975055 225.769133,101.975055 C268.500974,101.975055 303.326653,77.7729791 323.651274,59.2426581 C351.364812,86.4682134 388.491565,101.789247 427.202713,101.975055 C463.415777,102.390472 498.268014,88.0931476 523.889289,62.3116211 C550.415356,88.394442 586.212756,102.680602 623.27553,101.975055 C635.971554,101.458636 646,90.9409795 646,78.1420316 C646,65.3430837 635.971554,54.825427 623.27553,54.3090087 L623.121263,54.0759229 Z" id="Shape"></path>
                <path d="M1208.12126,54.0759229 C1154.12796,54.0759229 1131.18081,15.6556137 1129.59958,12.8197365 C1125.60313,4.95091473 1117.56769,0 1108.79287,0 C1100.01805,0 1091.98261,4.95091473 1087.98617,12.8197365 C1071.512,38.9550327 1042.78073,54.6379275 1012.04845,54.2701611 C989.982975,54.282485 968.537387,46.917912 951.074583,33.3312868 C942.663886,27.0719893 935.228486,19.5824164 929.014462,11.1104407 C924.860511,4.66616828 917.858383,0.655229841 910.236314,0.353995959 C902.614245,0.0527620775 895.321658,3.49875519 890.679218,9.59538298 C890.332119,10.0227069 854.657973,54.2701611 810.614866,54.2701611 C765.453326,54.2701611 727.503749,17.1706714 726.269616,15.9275472 C721.713228,11.5898393 715.551696,9.38937976 709.300293,9.86731641 C703.093846,9.39499046 696.972666,11.5487899 692.408103,15.8110043 C677.793992,31.6894277 659.569404,43.7543649 639.301834,50.9681123 C630.24265,53.9625847 620.705254,55.2145107 611.186751,54.6586374 C610.145452,54.6586374 609.296986,54.4255516 608.602786,54.4255516 C595.567327,54.4255516 585,65.0698704 585,78.2003031 C585,91.3307357 595.567327,101.975055 608.602786,101.975055 L609.836919,101.975055 L614.927716,101.975055 C628.208999,101.944325 641.399344,99.7670793 653.995726,95.5263475 C674.519047,88.4482639 693.493604,77.4475206 709.878793,63.1274214 C730.434814,79.1714939 767.150259,101.975055 810.769133,101.975055 C853.500974,101.975055 888.326653,77.7729791 908.651274,59.2426581 C936.364812,86.4682134 973.491565,101.789247 1012.20271,101.975055 C1048.41578,102.390472 1083.26801,88.0931476 1108.88929,62.3116211 C1135.41536,88.394442 1171.21276,102.680602 1208.27553,101.975055 C1220.97155,101.458636 1231,90.9409795 1231,78.1420316 C1231,65.3430837 1220.97155,54.825427 1208.27553,54.3090087 L1208.12126,54.0759229 Z" id="Shape"></path>
                <path d="M1804.12126,54.0759229 C1750.12796,54.0759229 1727.18081,15.6556137 1725.59958,12.8197365 C1721.60313,4.95091473 1713.56769,0 1704.79287,0 C1696.01805,0 1687.98261,4.95091473 1683.98617,12.8197365 C1667.512,38.9550327 1638.78073,54.6379275 1608.04845,54.2701611 C1585.98298,54.282485 1564.53739,46.917912 1547.07458,33.3312868 C1538.66389,27.0719893 1531.22849,19.5824164 1525.01446,11.1104407 C1520.86051,4.66616828 1513.85838,0.655229841 1506.23631,0.353995959 C1498.61425,0.0527620775 1491.32166,3.49875519 1486.67922,9.59538298 C1486.33212,10.0227069 1450.65797,54.2701611 1406.61487,54.2701611 C1361.45333,54.2701611 1323.50375,17.1706714 1322.26962,15.9275472 C1317.71323,11.5898393 1311.5517,9.38937976 1305.30029,9.86731641 C1299.09385,9.39499046 1292.97267,11.5487899 1288.4081,15.8110043 C1273.79399,31.6894277 1255.5694,43.7543649 1235.30183,50.9681123 C1226.24265,53.9625847 1216.70525,55.2145107 1207.18675,54.6586374 C1206.14545,54.6586374 1205.29699,54.4255516 1204.60279,54.4255516 C1191.56733,54.4255516 1181,65.0698704 1181,78.2003031 C1181,91.3307357 1191.56733,101.975055 1204.60279,101.975055 L1205.83692,101.975055 L1210.92772,101.975055 C1224.209,101.944325 1237.39934,99.7670793 1249.99573,95.5263475 C1270.51905,88.4482639 1289.4936,77.4475206 1305.87879,63.1274214 C1326.43481,79.1714939 1363.15026,101.975055 1406.76913,101.975055 C1449.50097,101.975055 1484.32665,77.7729791 1504.65127,59.2426581 C1532.36481,86.4682134 1569.49156,101.789247 1608.20271,101.975055 C1644.41578,102.390472 1679.26801,88.0931476 1704.88929,62.3116211 C1731.41536,88.394442 1767.21276,102.680602 1804.27553,101.975055 C1816.97155,101.458636 1827,90.9409795 1827,78.1420316 C1827,65.3430837 1816.97155,54.825427 1804.27553,54.3090087 L1804.12126,54.0759229 Z" id="Shape"></path>
                <path d="M2389.12126,54.0759229 C2335.12796,54.0759229 2312.18081,15.6556137 2310.59958,12.8197365 C2306.60313,4.95091473 2298.56769,0 2289.79287,0 C2281.01805,0 2272.98261,4.95091473 2268.98617,12.8197365 C2252.512,38.9550327 2223.78073,54.6379275 2193.04845,54.2701611 C2170.98298,54.282485 2149.53739,46.917912 2132.07458,33.3312868 C2123.66389,27.0719893 2116.22849,19.5824164 2110.01446,11.1104407 C2105.86051,4.66616828 2098.85838,0.655229841 2091.23631,0.353995959 C2083.61425,0.0527620775 2076.32166,3.49875519 2071.67922,9.59538298 C2071.33212,10.0227069 2035.65797,54.2701611 1991.61487,54.2701611 C1946.45333,54.2701611 1908.50375,17.1706714 1907.26962,15.9275472 C1902.71323,11.5898393 1896.5517,9.38937976 1890.30029,9.86731641 C1884.09385,9.39499046 1877.97267,11.5487899 1873.4081,15.8110043 C1858.79399,31.6894277 1840.5694,43.7543649 1820.30183,50.9681123 C1811.24265,53.9625847 1801.70525,55.2145107 1792.18675,54.6586374 C1791.14545,54.6586374 1790.29699,54.4255516 1789.60279,54.4255516 C1776.56733,54.4255516 1766,65.0698704 1766,78.2003031 C1766,91.3307357 1776.56733,101.975055 1789.60279,101.975055 L1790.83692,101.975055 L1795.92772,101.975055 C1809.209,101.944325 1822.39934,99.7670793 1834.99573,95.5263475 C1855.51905,88.4482639 1874.4936,77.4475206 1890.87879,63.1274214 C1911.43481,79.1714939 1948.15026,101.975055 1991.76913,101.975055 C2034.50097,101.975055 2069.32665,77.7729791 2089.65127,59.2426581 C2117.36481,86.4682134 2154.49156,101.789247 2193.20271,101.975055 C2229.41578,102.390472 2264.26801,88.0931476 2289.88929,62.3116211 C2316.41536,88.394442 2352.21276,102.680602 2389.27553,101.975055 C2401.97155,101.458636 2412,90.9409795 2412,78.1420316 C2412,65.3430837 2401.97155,54.825427 2389.27553,54.3090087 L2389.12126,54.0759229 Z" id="Shape"></path>
                <path d="M2975.12126,54.0759229 C2921.12796,54.0759229 2898.18081,15.6556137 2896.59958,12.8197365 C2892.60313,4.95091473 2884.56769,0 2875.79287,0 C2867.01805,0 2858.98261,4.95091473 2854.98617,12.8197365 C2838.512,38.9550327 2809.78073,54.6379275 2779.04845,54.2701611 C2756.98298,54.282485 2735.53739,46.917912 2718.07458,33.3312868 C2709.66389,27.0719893 2702.22849,19.5824164 2696.01446,11.1104407 C2691.86051,4.66616828 2684.85838,0.655229841 2677.23631,0.353995959 C2669.61425,0.0527620775 2662.32166,3.49875519 2657.67922,9.59538298 C2657.33212,10.0227069 2621.65797,54.2701611 2577.61487,54.2701611 C2532.45333,54.2701611 2494.50375,17.1706714 2493.26962,15.9275472 C2488.71323,11.5898393 2482.5517,9.38937976 2476.30029,9.86731641 C2470.09385,9.39499046 2463.97267,11.5487899 2459.4081,15.8110043 C2444.79399,31.6894277 2426.5694,43.7543649 2406.30183,50.9681123 C2397.24265,53.9625847 2387.70525,55.2145107 2378.18675,54.6586374 C2377.14545,54.6586374 2376.29699,54.4255516 2375.60279,54.4255516 C2362.56733,54.4255516 2352,65.0698704 2352,78.2003031 C2352,91.3307357 2362.56733,101.975055 2375.60279,101.975055 L2376.83692,101.975055 L2381.92772,101.975055 C2395.209,101.944325 2408.39934,99.7670793 2420.99573,95.5263475 C2441.51905,88.4482639 2460.4936,77.4475206 2476.87879,63.1274214 C2497.43481,79.1714939 2534.15026,101.975055 2577.76913,101.975055 C2620.50097,101.975055 2655.32665,77.7729791 2675.65127,59.2426581 C2703.36481,86.4682134 2740.49156,101.789247 2779.20271,101.975055 C2815.41578,102.390472 2850.26801,88.0931476 2875.88929,62.3116211 C2902.41536,88.394442 2938.21276,102.680602 2975.27553,101.975055 C2987.97155,101.458636 2998,90.9409795 2998,78.1420316 C2998,65.3430837 2987.97155,54.825427 2975.27553,54.3090087 L2975.12126,54.0759229 Z" id="Shape"></path>
                <path d="M3560.12126,54.0759229 C3506.12796,54.0759229 3483.18081,15.6556137 3481.59958,12.8197365 C3477.60313,4.95091473 3469.56769,0 3460.79287,0 C3452.01805,0 3443.98261,4.95091473 3439.98617,12.8197365 C3423.512,38.9550327 3394.78073,54.6379275 3364.04845,54.2701611 C3341.98298,54.282485 3320.53739,46.917912 3303.07458,33.3312868 C3294.66389,27.0719893 3287.22849,19.5824164 3281.01446,11.1104407 C3276.86051,4.66616828 3269.85838,0.655229841 3262.23631,0.353995959 C3254.61425,0.0527620775 3247.32166,3.49875519 3242.67922,9.59538298 C3242.33212,10.0227069 3206.65797,54.2701611 3162.61487,54.2701611 C3117.45333,54.2701611 3079.50375,17.1706714 3078.26962,15.9275472 C3073.71323,11.5898393 3067.5517,9.38937976 3061.30029,9.86731641 C3055.09385,9.39499046 3048.97267,11.5487899 3044.4081,15.8110043 C3029.79399,31.6894277 3011.5694,43.7543649 2991.30183,50.9681123 C2982.24265,53.9625847 2972.70525,55.2145107 2963.18675,54.6586374 C2962.14545,54.6586374 2961.29699,54.4255516 2960.60279,54.4255516 C2947.56733,54.4255516 2937,65.0698704 2937,78.2003031 C2937,91.3307357 2947.56733,101.975055 2960.60279,101.975055 L2961.83692,101.975055 L2966.92772,101.975055 C2980.209,101.944325 2993.39934,99.7670793 3005.99573,95.5263475 C3026.51905,88.4482639 3045.4936,77.4475206 3061.87879,63.1274214 C3082.43481,79.1714939 3119.15026,101.975055 3162.76913,101.975055 C3205.50097,101.975055 3240.32665,77.7729791 3260.65127,59.2426581 C3288.36481,86.4682134 3325.49156,101.789247 3364.20271,101.975055 C3400.41578,102.390472 3435.26801,88.0931476 3460.88929,62.3116211 C3487.41536,88.394442 3523.21276,102.680602 3560.27553,101.975055 C3572.97155,101.458636 3583,90.9409795 3583,78.1420316 C3583,65.3430837 3572.97155,54.825427 3560.27553,54.3090087 L3560.12126,54.0759229 Z" id="Shape"></path>
                <path d="M4160.12126,54.0759229 C4106.12796,54.0759229 4083.18081,15.6556137 4081.59958,12.8197365 C4077.60313,4.95091473 4069.56769,0 4060.79287,0 C4052.01805,0 4043.98261,4.95091473 4039.98617,12.8197365 C4023.512,38.9550327 3994.78073,54.6379275 3964.04845,54.2701611 C3941.98298,54.282485 3920.53739,46.917912 3903.07458,33.3312868 C3894.66389,27.0719893 3887.22849,19.5824164 3881.01446,11.1104407 C3876.86051,4.66616828 3869.85838,0.655229841 3862.23631,0.353995959 C3854.61425,0.0527620775 3847.32166,3.49875519 3842.67922,9.59538298 C3842.33212,10.0227069 3806.65797,54.2701611 3762.61487,54.2701611 C3717.45333,54.2701611 3679.50375,17.1706714 3678.26962,15.9275472 C3673.71323,11.5898393 3667.5517,9.38937976 3661.30029,9.86731641 C3655.09385,9.39499046 3648.97267,11.5487899 3644.4081,15.8110043 C3629.79399,31.6894277 3611.5694,43.7543649 3591.30183,50.9681123 C3582.24265,53.9625847 3572.70525,55.2145107 3563.18675,54.6586374 C3562.14545,54.6586374 3561.29699,54.4255516 3560.60279,54.4255516 C3547.56733,54.4255516 3537,65.0698704 3537,78.2003031 C3537,91.3307357 3547.56733,101.975055 3560.60279,101.975055 L3561.83692,101.975055 L3566.92772,101.975055 C3580.209,101.944325 3593.39934,99.7670793 3605.99573,95.5263475 C3626.51905,88.4482639 3645.4936,77.4475206 3661.87879,63.1274214 C3682.43481,79.1714939 3719.15026,101.975055 3762.76913,101.975055 C3805.50097,101.975055 3840.32665,77.7729791 3860.65127,59.2426581 C3888.36481,86.4682134 3925.49156,101.789247 3964.20271,101.975055 C4000.41578,102.390472 4035.26801,88.0931476 4060.88929,62.3116211 C4087.41536,88.394442 4123.21276,102.680602 4160.27553,101.975055 C4172.97155,101.458636 4183,90.9409795 4183,78.1420316 C4183,65.3430837 4172.97155,54.825427 4160.27553,54.3090087 L4160.12126,54.0759229 Z" id="Shape"></path>
            </g>
            <g id="top-water" transform="translate(0.000000, 1177.000000)" fill="#0076FF" fill-rule="nonzero">
                <path d="M1220.34951,55.0795135 C1166.32307,55.0795135 1143.40042,16.6627148 1141.77963,13.8270967 C1137.79299,5.95560165 1129.75708,1 1120.97945,1 C1112.20182,1 1104.1659,5.95560165 1100.17927,13.8270967 C1083.68573,39.9451591 1054.93849,55.6110167 1024.19493,55.2348898 C1002.11253,55.2678394 980.64733,47.9017258 963.183644,34.2979288 C954.783988,28.0353699 947.346317,20.5618772 941.109983,12.117957 C937.018759,5.6600073 930.036413,1.6376349 922.43227,1.35814587 C914.774092,1.01823265 907.431105,4.45300093 902.751209,10.5641937 C902.403896,11.0303227 866.669263,55.2348898 822.599122,55.2348898 C777.448452,55.2348898 739.436991,15.7693009 738.202101,14.4874461 C733.916662,9.48577217 727.809762,6.43324666 721.260952,6.0194359 C714.75442,6.45571446 708.681118,9.4565056 704.358393,14.3709139 C687.108522,32.2003482 669.241206,44.8246754 651.219528,50.7289761 C642.531538,53.7316617 633.390951,55.190629 624.206307,55.0406694 C623.704633,55.0406694 623.202959,55.0406694 622.662694,55.0406694 C568.636252,55.0406694 545.482062,16.7015589 544.092811,13.8659408 C540.093912,5.99783797 532.05354,1.04737561 523.273335,1.04737561 C514.49313,1.04737561 506.452758,5.99783797 502.45386,13.8659408 C485.969578,39.9988489 457.220673,55.6803108 426.469527,55.312578 C404.387126,55.3455276 382.921924,47.979414 365.458237,34.3756169 C357.058582,28.1130581 349.62091,20.6395653 343.384577,12.1956452 C339.293352,5.73769547 332.311007,1.71532307 324.706864,1.43583404 C317.051291,1.10913622 309.714054,4.54121493 305.025802,10.6418819 C304.678489,11.1080109 268.982447,55.312578 224.912306,55.312578 C179.723046,55.312578 141.750175,15.8469891 140.515285,14.5651343 C136.209788,9.56827373 130.093437,6.5179724 123.535546,6.09712407 C117.024595,6.51673748 110.945316,9.5204821 106.632987,14.448602 C89.3445255,32.2780364 71.4772092,44.9023636 53.4941219,50.8066643 C44.4456377,53.9114764 34.917538,55.3586412 25.3617814,55.0795135 C24.3584332,55.0795135 23.4708559,55.0795135 22.7762302,55.0795135 C10.0514043,55.5963174 0,66.1302773 0,78.9492029 C0,91.7681284 10.0514043,102.302088 22.7762302,102.818892 L24.0111203,102.818892 L29.1436324,102.818892 C42.4201717,102.784683 55.6053634,100.607673 68.1970323,96.3707743 C88.7471105,89.3247732 107.739046,78.3217142 124.1144,63.9748086 C144.683039,80.0562592 181.42102,102.818892 225.066667,102.818892 C267.824738,102.818892 302.671793,78.6578722 323.00889,60.0904003 C350.739438,87.313468 387.888979,102.633102 426.623888,102.818892 C462.860377,103.220872 497.726272,88.8943117 523.331221,63.0813947 C548.695935,88.0171299 582.618181,102.175962 618.070447,102.624672 C618.880843,102.624672 619.69124,102.624672 620.540227,102.624672 L621.775117,102.624672 L626.869039,102.624672 C640.158254,102.591265 653.356274,100.414287 665.961029,96.1765539 C686.415664,89.212759 705.338298,78.3306047 721.685445,64.130185 C742.254084,80.2116356 778.953475,102.974269 822.599122,102.974269 C865.357192,102.974269 900.242838,78.8132486 920.579935,60.2457766 C948.310483,87.4688443 985.460024,102.788478 1024.19493,102.974269 C1060.43023,103.389648 1095.30385,89.09363 1120.94086,63.3144592 C1147.46175,89.4038337 1183.27335,103.691133 1220.34951,102.974269 C1229.03583,103.327341 1237.21672,98.8640077 1241.66431,91.3453434 C1246.1119,83.8266792 1246.1119,74.4601673 1241.66431,66.9415031 C1237.21672,59.4228389 1229.03583,54.9595059 1220.34951,55.312578 L1220.34951,55.0795135 Z" id="Shape"></path>
                <path d="M2425.34951,55.0795135 C2371.32307,55.0795135 2348.40042,16.6627148 2346.77963,13.8270967 C2342.79299,5.95560165 2334.75708,1 2325.97945,1 C2317.20182,1 2309.1659,5.95560165 2305.17927,13.8270967 C2288.68573,39.9451591 2259.93849,55.6110167 2229.19493,55.2348898 C2207.11253,55.2678394 2185.64733,47.9017258 2168.18364,34.2979288 C2159.78399,28.0353699 2152.34632,20.5618772 2146.10998,12.117957 C2142.01876,5.6600073 2135.03641,1.6376349 2127.43227,1.35814587 C2119.77409,1.01823265 2112.43111,4.45300093 2107.75121,10.5641937 C2107.4039,11.0303227 2071.66926,55.2348898 2027.59912,55.2348898 C1982.44845,55.2348898 1944.43699,15.7693009 1943.2021,14.4874461 C1938.91666,9.48577217 1932.80976,6.43324666 1926.26095,6.0194359 C1919.75442,6.45571446 1913.68112,9.4565056 1909.35839,14.3709139 C1892.10852,32.2003482 1874.24121,44.8246754 1856.21953,50.7289761 C1847.53154,53.7316617 1838.39095,55.190629 1829.20631,55.0406694 C1828.70463,55.0406694 1828.20296,55.0406694 1827.66269,55.0406694 C1773.63625,55.0406694 1750.48206,16.7015589 1749.09281,13.8659408 C1745.09391,5.99783797 1737.05354,1.04737561 1728.27334,1.04737561 C1719.49313,1.04737561 1711.45276,5.99783797 1707.45386,13.8659408 C1690.96958,39.9988489 1662.22067,55.6803108 1631.46953,55.312578 C1609.38713,55.3455276 1587.92192,47.979414 1570.45824,34.3756169 C1562.05858,28.1130581 1554.62091,20.6395653 1548.38458,12.1956452 C1544.29335,5.73769547 1537.31101,1.71532307 1529.70686,1.43583404 C1522.05129,1.10913622 1514.71405,4.54121493 1510.0258,10.6418819 C1509.67849,11.1080109 1473.98245,55.312578 1429.91231,55.312578 C1384.72305,55.312578 1346.75017,15.8469891 1345.51528,14.5651343 C1341.20979,9.56827373 1335.09344,6.5179724 1328.53555,6.09712407 C1322.0246,6.51673748 1315.94532,9.5204821 1311.63299,14.448602 C1294.34453,32.2780364 1276.47721,44.9023636 1258.49412,50.8066643 C1249.44564,53.9114764 1239.91754,55.3586412 1230.36178,55.0795135 C1229.35843,55.0795135 1228.47086,55.0795135 1227.77623,55.0795135 C1215.0514,55.5963174 1205,66.1302773 1205,78.9492029 C1205,91.7681284 1215.0514,102.302088 1227.77623,102.818892 L1229.01112,102.818892 L1234.14363,102.818892 C1247.42017,102.784683 1260.60536,100.607673 1273.19703,96.3707743 C1293.74711,89.3247732 1312.73905,78.3217142 1329.1144,63.9748086 C1349.68304,80.0562592 1386.42102,102.818892 1430.06667,102.818892 C1472.82474,102.818892 1507.67179,78.6578722 1528.00889,60.0904003 C1555.73944,87.313468 1592.88898,102.633102 1631.62389,102.818892 C1667.86038,103.220872 1702.72627,88.8943117 1728.33122,63.0813947 C1753.69593,88.0171299 1787.61818,102.175962 1823.07045,102.624672 C1823.88084,102.624672 1824.69124,102.624672 1825.54023,102.624672 L1826.77512,102.624672 L1831.86904,102.624672 C1845.15825,102.591265 1858.35627,100.414287 1870.96103,96.1765539 C1891.41566,89.212759 1910.3383,78.3306047 1926.68545,64.130185 C1947.25408,80.2116356 1983.95347,102.974269 2027.59912,102.974269 C2070.35719,102.974269 2105.24284,78.8132486 2125.57993,60.2457766 C2153.31048,87.4688443 2190.46002,102.788478 2229.19493,102.974269 C2265.43023,103.389648 2300.30385,89.09363 2325.94086,63.3144592 C2352.46175,89.4038337 2388.27335,103.691133 2425.34951,102.974269 C2434.03583,103.327341 2442.21672,98.8640077 2446.66431,91.3453434 C2451.1119,83.8266792 2451.1119,74.4601673 2446.66431,66.9415031 C2442.21672,59.4228389 2434.03583,54.9595059 2425.34951,55.312578 L2425.34951,55.0795135 Z" id="Shape"></path>
                <path d="M3619.34951,54.0795135 C3565.32307,54.0795135 3542.40042,15.6627148 3540.77963,12.8270967 C3536.79299,4.95560165 3528.75708,0 3519.97945,0 C3511.20182,0 3503.1659,4.95560165 3499.17927,12.8270967 C3482.68573,38.9451591 3453.93849,54.6110167 3423.19493,54.2348898 C3401.11253,54.2678394 3379.64733,46.9017258 3362.18364,33.2979288 C3353.78399,27.0353699 3346.34632,19.5618772 3340.10998,11.117957 C3336.01876,4.6600073 3329.03641,0.637634904 3321.43227,0.358145872 C3313.77409,0.0182326479 3306.43111,3.45300093 3301.75121,9.56419368 C3301.4039,10.0303227 3265.66926,54.2348898 3221.59912,54.2348898 C3176.44845,54.2348898 3138.43699,14.7693009 3137.2021,13.4874461 C3132.91666,8.48577217 3126.80976,5.43324666 3120.26095,5.0194359 C3113.75442,5.45571446 3107.68112,8.4565056 3103.35839,13.3709139 C3086.10852,31.2003482 3068.24121,43.8246754 3050.21953,49.7289761 C3041.53154,52.7316617 3032.39095,54.190629 3023.20631,54.0406694 C3022.70463,54.0406694 3022.20296,54.0406694 3021.66269,54.0406694 C2967.63625,54.0406694 2944.48206,15.7015589 2943.09281,12.8659408 C2939.09391,4.99783797 2931.05354,0.0473756106 2922.27334,0.0473756106 C2913.49313,0.0473756106 2905.45276,4.99783797 2901.45386,12.8659408 C2884.96958,38.9988489 2856.22067,54.6803108 2825.46953,54.312578 C2803.38713,54.3455276 2781.92192,46.979414 2764.45824,33.3756169 C2756.05858,27.1130581 2748.62091,19.6395653 2742.38458,11.1956452 C2738.29335,4.73769547 2731.31101,0.715323071 2723.70686,0.435834039 C2716.05129,0.10913622 2708.71405,3.54121493 2704.0258,9.64188185 C2703.67849,10.1080109 2667.98245,54.312578 2623.91231,54.312578 C2578.72305,54.312578 2540.75017,14.8469891 2539.51528,13.5651343 C2535.20979,8.56827373 2529.09344,5.5179724 2522.53555,5.09712407 C2516.0246,5.51673748 2509.94532,8.5204821 2505.63299,13.448602 C2488.34453,31.2780364 2470.47721,43.9023636 2452.49412,49.8066643 C2443.44564,52.9114764 2433.91754,54.3586412 2424.36178,54.0795135 C2423.35843,54.0795135 2422.47086,54.0795135 2421.77623,54.0795135 C2409.0514,54.5963174 2399,65.1302773 2399,77.9492029 C2399,90.7681284 2409.0514,101.302088 2421.77623,101.818892 L2423.01112,101.818892 L2428.14363,101.818892 C2441.42017,101.784683 2454.60536,99.6076728 2467.19703,95.3707743 C2487.74711,88.3247732 2506.73905,77.3217142 2523.1144,62.9748086 C2543.68304,79.0562592 2580.42102,101.818892 2624.06667,101.818892 C2666.82474,101.818892 2701.67179,77.6578722 2722.00889,59.0904003 C2749.73944,86.313468 2786.88898,101.633102 2825.62389,101.818892 C2861.86038,102.220872 2896.72627,87.8943117 2922.33122,62.0813947 C2947.69593,87.0171299 2981.61818,101.175962 3017.07045,101.624672 C3017.88084,101.624672 3018.69124,101.624672 3019.54023,101.624672 L3020.77512,101.624672 L3025.86904,101.624672 C3039.15825,101.591265 3052.35627,99.414287 3064.96103,95.1765539 C3085.41566,88.212759 3104.3383,77.3306047 3120.68545,63.130185 C3141.25408,79.2116356 3177.95347,101.974269 3221.59912,101.974269 C3264.35719,101.974269 3299.24284,77.8132486 3319.57993,59.2457766 C3347.31048,86.4688443 3384.46002,101.788478 3423.19493,101.974269 C3459.43023,102.389648 3494.30385,88.09363 3519.94086,62.3144592 C3546.46175,88.4038337 3582.27335,102.691133 3619.34951,101.974269 C3628.03583,102.327341 3636.21672,97.8640077 3640.66431,90.3453434 C3645.1119,82.8266792 3645.1119,73.4601673 3640.66431,65.9415031 C3636.21672,58.4228389 3628.03583,53.9595059 3619.34951,54.312578 L3619.34951,54.0795135 Z" id="Shape"></path>
                <path d="M4735.77963,12.8270967 C4731.79299,4.95560165 4723.75708,0 4714.97945,0 C4706.20182,0 4698.1659,4.95560165 4694.17927,12.8270967 C4677.68573,38.9451591 4648.93849,54.6110167 4618.19493,54.2348898 C4596.11253,54.2678394 4574.64733,46.9017258 4557.18364,33.2979288 C4548.78399,27.0353699 4541.34632,19.5618772 4535.10998,11.117957 C4531.01876,4.6600073 4524.03641,0.637634904 4516.43227,0.358145872 C4508.77409,0.0182326479 4501.43111,3.45300093 4496.75121,9.56419368 C4496.4039,10.0303227 4460.66926,54.2348898 4416.59912,54.2348898 C4371.44845,54.2348898 4333.43699,14.7693009 4332.2021,13.4874461 C4327.91666,8.48577217 4321.80976,5.43324666 4315.26095,5.0194359 C4308.75442,5.45571446 4302.68112,8.4565056 4298.35839,13.3709139 C4281.10852,31.2003482 4263.24121,43.8246754 4245.21953,49.7289761 C4236.53154,52.7316617 4227.39095,54.190629 4218.20631,54.0406694 C4162.63625,54.0406694 4139.48206,15.7015589 4138.09281,12.8659408 C4134.09391,4.99783797 4126.05354,0.0473756106 4117.27334,0.0473756106 C4108.49313,0.0473756106 4100.45276,4.99783797 4096.45386,12.8659408 C4079.96958,38.9988489 4051.22067,54.6803108 4020.46953,54.312578 C3998.38713,54.3455276 3976.92192,46.979414 3959.45824,33.3756169 C3951.05858,27.1130581 3943.62091,19.6395653 3937.38458,11.1956452 C3933.29335,4.73769547 3926.31101,0.715323071 3918.70686,0.435834039 C3911.05129,0.10913622 3903.71405,3.54121493 3899.0258,9.64188185 C3898.67849,10.1080109 3862.98245,54.312578 3818.91231,54.312578 C3773.72305,54.312578 3735.75017,14.8469891 3734.51528,13.5651343 C3730.20979,8.56827373 3724.09344,5.5179724 3717.53555,5.09712407 C3711.0246,5.51673748 3704.94532,8.5204821 3700.63299,13.448602 C3683.34453,31.2780364 3665.47721,43.9023636 3647.49412,49.8066643 C3638.44564,52.9114764 3628.91754,54.3586412 3619.36178,54.0795135 C3604.0514,54.5963174 3594,65.1302773 3594,77.9492029 C3594,90.7681284 3604.0514,101.302088 3616.77623,101.818892 L3623.14363,101.818892 C3636.42017,101.784683 3649.60536,99.6076728 3662.19703,95.3707743 C3682.74711,88.3247732 3701.73905,77.3217142 3718.1144,62.9748086 C3738.68304,79.0562592 3775.42102,101.818892 3819.06667,101.818892 C3861.82474,101.818892 3896.67179,77.6578722 3917.00889,59.0904003 C3944.73944,86.313468 3981.88898,101.633102 4020.62389,101.818892 C4056.86038,102.220872 4091.72627,87.8943117 4117.33122,62.0813947 C4142.69593,87.0171299 4176.61818,101.175962 4212.07045,101.624672 C4212.61071,101.624672 4215.54358,101.624672 4220.86904,101.624672 C4234.15825,101.591265 4247.35627,99.414287 4259.96103,95.1765539 C4280.41566,88.212759 4299.3383,77.3306047 4315.68545,63.130185 C4336.25408,79.2116356 4372.95347,101.974269 4416.59912,101.974269 C4459.35719,101.974269 4494.24284,77.8132486 4514.57993,59.2457766 C4542.31048,86.4688443 4579.46002,101.788478 4618.19493,101.974269 C4654.43023,102.389648 4689.30385,88.09363 4714.94086,62.3144592 C4741.46175,88.4038337 4777.27335,102.691133 4814.34951,101.974269 C4823.03583,102.327341 4831.21672,97.8640077 4835.66431,90.3453434 C4840.1119,82.8266792 4840.1119,73.4601673 4835.66431,65.9415031 C4831.21672,58.4228389 4823.03583,53.9595059 4814.34951,54.312578 C4760.32307,54.0795135 4737.40042,15.6627148 4735.77963,12.8270967 Z" id="Shape"></path>
            </g>
            <path d="M758,401 C769.580821,381.721154 716,371 692.459228,358.586538 L348.624652,358.586538 C354.81588,334.275407 357.979482,309.293982 358.04372,284.20875 C357.813935,248.05647 352.61844,212.106677 342.602625,177.365385 L917.783402,177.365385 C909.676827,177.365385 902.342307,244.61 902.342307,284.20875 C902.378552,309.290959 905.516259,334.272672 911.68417,358.586538 L692.459228,358.586538 C709.019802,366.298077 723.341417,381.721154 734.922238,401 L977,401 C977,401 944.149071,362.789327 944.149071,284.20875 C944.149071,205.628173 977,134.951923 977,134.951923 L642.005451,134.951923 L642.005451,96.3942308 L682.808544,71.6016346 L704.426076,108.192885 L905.816554,65.5480769 L733.648348,45.0739423 L794.910891,3.85576923 L639.30326,3.85576923 C636.716876,0 633.126822,0 629.112137,0 C618.640743,0.876796661 611.143785,9.0503125 611.123262,18.8547115 L611.123262,134.951923 L283,134.951923 C283,134.951923 315.889532,206.746346 315.889532,284.20875 C315.889532,361.671154 283,401 283,401 L758,401 Z" id="Shape" fill="#2289FF" fill-rule="nonzero"></path>
            <g id="logo" transform="translate(104.000000, 241.000000)">
                <path d="M140.022543,941.257367 C152.362496,937.516209 163.949149,931.632332 174.253276,923.874483 C230.095296,916.882701 361.075127,892.971578 503.863981,816.834546 L503.863981,911.629207 C503.863981,923.362909 513.366903,932.874954 525.089352,932.874954 C536.8118,932.874954 546.314722,923.362909 546.314722,911.629207 L546.314722,819.808951 C677.526102,893.666893 808.042834,919.625334 870.059507,928.355404 C884.212983,939.068667 901.486149,943.928488 919.109408,944 L1048.00529,701.29631 C1051.99824,693.799619 1051.99824,684.80462 1048.00529,677.30793 C1044.072,669.606548 1036.61725,664.324042 1028.05344,663.169851 C930.1466,653.783093 798.472121,630.914944 690.299916,569.109134 L1004.74413,569.109134 C1004.74413,569.109134 971.864101,489.572782 971.864101,405.014708 C971.864101,320.456634 1004.74413,206 1004.74413,206 L525.938367,206 C525.591042,225 525.741981,234.110415 525.938367,248.491494 L951.256196,248.491494 C941.531117,248.491494 930.069417,354.256687 930.069417,406.868882 C930.069417,452.759696 938.67534,495.714734 947.474221,530.480502 L626.700988,530.480502 C567.23136,480.263282 549.209091,440.591678 549.093316,440.321277 C545.234158,430.895891 536.126544,422.320335 525.938367,422.320335 C515.557231,422.320335 506.295251,430.432348 502.436093,439.66459 C486.99946,474.430359 462.416622,503.440461 432.315188,530.480502 L105.830401,530.480502 C114.667873,495.714734 123.389571,452.450667 123.389571,406.868882 C123.389571,354.72023 111.812096,290.982989 102.087017,248.491494 L535,248.491494 C535.196386,234.110415 542,222 525.938367,206 L48.4833095,206 C48.4833095,206 81.3633377,321.615493 81.3633377,405.014708 C81.3633377,488.413923 48.4833095,569.109134 48.4833095,569.109134 L369.758233,569.109134 C224.808249,650.229259 26.6790655,663.053965 23.9004716,663.247108 C15.0667467,663.930182 7.1951337,669.086602 3.03382294,676.916124 C-1.12748782,684.745646 -1.00076475,694.161266 3.36974973,701.875739 L140.022543,941.257367 Z M546.314722,523.836378 C600.342937,587.071447 729.238823,678.814446 985.641296,710.567181 L957.160708,764.415493 C919.64969,759.625543 712.258526,729.147553 546.314722,620.02167 L546.314722,523.836378 Z M546.314722,644.85988 C704.54021,744.444491 893.909104,776.738027 946.586614,784.154724 L916.793913,840.475268 C845.399485,828.423135 681.38526,793.425595 546.314722,706.511175 L546.314722,644.85988 Z M546.314722,731.078985 C677.526102,812.19911 832.278347,846.964878 906.374186,859.90547 L880.6336,908.654802 C822.746227,901.160848 685.244419,875.897723 546.314722,795.781942 L546.314722,731.078985 Z M503.863981,792.884795 C402.253201,849.07518 291.242899,886.214503 176.29863,902.474221 L148.551283,853.995289 C221.450782,841.247841 368.793443,807.331903 503.863981,728.37498 L503.863981,792.884795 Z M503.863981,704.038943 C364.934285,789.021931 207.364854,823.092384 137.552682,834.796859 L105.444485,778.708087 C152.256075,772.372991 341.779336,741.547344 503.863981,642.349019 L503.863981,704.038943 Z M503.863981,530.210102 L503.863981,617.858466 C326.342703,729.263439 115.864212,756.921539 94.2529262,759.239257 L66.7757196,711.301125 C159.974391,700.214708 388.089234,660.968019 503.863981,529.939702 L503.863981,530.210102 Z" id="Shape" fill="#2289FF" fill-rule="nonzero"></path>
                <circle id="Oval" fill="#FFFFFF" cx="525.5" cy="206.5" r="206.5"></circle>
                <g id="do-logo" transform="translate(369.000000, 50.000000)" fill="#0080FF">
                    <g id="XMLID_44_">
                        <g id="XMLID_48_" fill-rule="nonzero">
                            <path d="M156.5,312.115819 L156.5,251.637853 C220.561798,251.637853 270.289326,188.153672 245.691011,120.779096 C236.66573,96.0220339 216.668539,76.039548 191.716292,67.020904 C124.292135,42.6175141 60.761236,92.1316384 60.761236,156.146328 C60.761236,156.146328 60.761236,156.146328 60.761236,156.146328 L0.415730337,156.146328 C0.415730337,54.1118644 99.1629213,-25.4644068 206.227528,7.95762712 C252.946629,22.6350282 290.286517,59.7706215 304.797753,106.455367 C338.244382,213.441243 258.609551,312.115819 156.5,312.115819 Z" id="XMLID_49_"></path>
                        </g>
                        <polygon id="XMLID_47_" points="156.676966 251.991525 96.3314607 251.991525 96.3314607 191.690395 96.3314607 191.690395 156.676966 191.690395 156.676966 191.690395"></polygon>
                        <polygon id="XMLID_46_" points="96.3314607 298.145763 50.1432584 298.145763 50.1432584 298.145763 50.1432584 251.991525 96.3314607 251.991525"></polygon>
                        <path d="M50.1432584,251.991525 L11.3876404,251.991525 C11.3876404,251.991525 11.3876404,251.991525 11.3876404,251.991525 L11.3876404,213.264407 C11.3876404,213.264407 11.3876404,213.264407 11.3876404,213.264407 L50.1432584,213.264407 C50.1432584,213.264407 50.1432584,213.264407 50.1432584,213.264407 L50.1432584,251.991525 Z" id="XMLID_45_"></path>
                    </g>
                </g>
            </g>
        </g>
        <text id="LaraSail" font-family="AmericanTypewriter, American Typewriter" font-size="750" font-weight="normal" fill="#0076FF">
            <tspan x="1625" y="834">LaraSail</tspan>
        </text>
    </g>
</svg>